<?xml version="1.0" encoding="utf-8"?>
<!-- Generator: Adobe Illustrator 16.0.0, SVG Export Plug-In . SVG Version: 6.00 Build 0)  -->
<!DOCTYPE svg PUBLIC "-//W3C//DTD SVG 1.1//EN" "http://www.w3.org/Graphics/SVG/1.1/DTD/svg11.dtd">
<svg version="1.1" id="Layer_1" xmlns="http://www.w3.org/2000/svg" xmlns:xlink="http://www.w3.org/1999/xlink" x="0px" y="0px"
	 width="96px" height="160px" viewBox="0 -8 96 160" enable-background="new 0 -8 96 160" xml:space="preserve">
<g>
	<g>
		<polyline fill="none" stroke="#2B3C90" stroke-miterlimit="10" points="63.9,56.049 77.826,40 96.004,40 		"/>
		<polyline fill="none" stroke="#2B3C90" stroke-miterlimit="10" points="50.859,39.92 77.84,8 95.99,8 		"/>
		<polyline fill="none" stroke="#2B3C90" stroke-miterlimit="10" points="63.484,89.626 77.818,104 96.004,104 		"/>
		<polyline fill="none" stroke="#2B3C90" stroke-miterlimit="10" points="47.117,105.363 78.55,136 96.004,136 		"/>
		<g>
			<line fill="none" stroke="#2B3C90" stroke-miterlimit="10" x1="-0.004" y1="88" x2="18.996" y2="88"/>
			<line fill="none" stroke="#2B3C90" stroke-miterlimit="10" x1="-0.004" y1="56" x2="18.996" y2="56"/>
		</g>
		<g>
			<path fill="#FFCC66" stroke="#FF0000" stroke-miterlimit="10" d="M19.014,60.66c0-12.525,10.154-22.68,22.674-22.68
				c12.537,0,22.68,10.154,22.68,22.68c0,12.523-10.144,22.68-22.68,22.68C29.168,83.34,19.014,73.184,19.014,60.66z"/>
			<path fill="#FFCC66" stroke="#FF0000" stroke-miterlimit="10" d="M19.014,83.34c0-12.525,10.154-22.68,22.674-22.68
				c12.537,0,22.68,10.154,22.68,22.68c0,12.523-10.144,22.68-22.68,22.68C29.168,106.02,19.014,95.863,19.014,83.34z"/>
		</g>
	</g>
</g>
</svg>
