<?xml version="1.0" encoding="utf-8"?>
<!-- Generator: Adobe Illustrator 16.0.0, SVG Export Plug-In . SVG Version: 6.00 Build 0)  -->
<!DOCTYPE svg PUBLIC "-//W3C//DTD SVG 1.1//EN" "http://www.w3.org/Graphics/SVG/1.1/DTD/svg11.dtd">
<svg version="1.1" id="Layer_1" xmlns="http://www.w3.org/2000/svg" xmlns:xlink="http://www.w3.org/1999/xlink" x="0px" y="0px"
	 width="80px" height="64px" viewBox="0 0 80 64" enable-background="new 0 0 80 64" xml:space="preserve">
<g>
	<polyline fill="none" stroke="#2B3C90" stroke-miterlimit="10" points="53.627,24.17 67.908,16.101 80,16.101 	"/>
	<polyline fill="none" stroke="#2B3C90" stroke-miterlimit="10" points="53.627,40.031 67.908,48.102 80,48.102 	"/>
	<path fill="#66FF99" d="M18.665,32.101c0-7.86,9.553-14.224,21.336-14.224s21.335,6.363,21.335,14.224
		c0,7.854-9.553,14.224-21.335,14.224C28.217,46.324,18.665,39.955,18.665,32.101z"/>
	<path fill="none" stroke="#009900" stroke-width="1.2" stroke-linecap="round" stroke-linejoin="round" stroke-miterlimit="10" d="
		M18.571,32.102c0-7.86,9.553-14.224,21.336-14.224c11.782,0,21.335,6.363,21.335,14.224c0,7.854-9.553,14.224-21.335,14.224
		C28.124,46.325,18.571,39.956,18.571,32.102z"/>
</g>
</svg>
